<svg xmlns="http://www.w3.org/2000/svg" xmlns:xlink="http://www.w3.org/1999/xlink" width="150" zoomAndPan="magnify" viewBox="0 0 112.5 44.999999" height="60" preserveAspectRatio="xMidYMid meet" version="1.0"><defs><g/></defs><g fill="#ea2e27" fill-opacity="1"><g transform="translate(4.737878, 29.926024)"><g><path d="M 4.15625 -15.71875 L -1.199219 -14.675781 C -0.941406 -13.683594 1.453125 -1.390625 1.601562 -0.3125 L 5.046875 -0.984375 C 4.957031 -1.347656 4.585938 -3.128906 4.160156 -5.324219 L 6.085938 -5.703125 C 9.820312 -6.429688 11.71875 -8.824219 11.144531 -11.777344 C 10.550781 -14.8125 7.6875 -16.40625 4.15625 -15.71875 Z M 5.171875 -7.441406 C 4.496094 -7.308594 4.179688 -7.289062 3.769531 -7.316406 L 2.625 -13.207031 C 2.636719 -13.464844 2.875 -13.550781 3.140625 -13.605469 L 4.125 -13.796875 C 5.871094 -14.136719 7.277344 -13.046875 7.695312 -10.890625 C 8.03125 -9.167969 7.347656 -7.863281 5.933594 -7.589844 Z M 5.171875 -7.441406 "/></g></g></g><g fill="#ea2e27" fill-opacity="1"><g transform="translate(17.331037, 27.440877)"><g><path d="M 14.042969 -1.925781 C 13.453125 -2.519531 10.761719 -6.011719 10 -7.109375 C 11.527344 -8.121094 12.199219 -9.667969 11.964844 -11.386719 C 11.589844 -14.121094 9.09375 -16.015625 4.890625 -15.441406 L -0.371094 -14.71875 C -0.207031 -13.835938 1.523438 -1.347656 1.617188 -0.222656 L 5.09375 -0.699219 C 5.019531 -1.109375 4.710938 -3.199219 4.371094 -5.664062 L 6.753906 -5.988281 L 6.898438 -6.007812 C 7.671875 -5.144531 9.882812 -1.945312 10.191406 -1.394531 Z M 5.546875 -7.722656 C 5.050781 -7.65625 4.515625 -7.6875 4.085938 -7.753906 L 3.417969 -12.644531 C 3.40625 -13.023438 3.636719 -13.179688 4.21875 -13.257812 L 5.085938 -13.378906 C 6.972656 -13.636719 8.171875 -12.578125 8.421875 -10.753906 C 8.648438 -9.097656 7.84375 -8.039062 6.167969 -7.808594 Z M 5.546875 -7.722656 "/></g></g></g><g fill="#ea2e27" fill-opacity="1"><g transform="translate(30.699762, 25.612429)"><g><path d="M 7.109375 -2.578125 C 5.835938 -2.472656 5.292969 -2.472656 4.90625 -2.566406 C 4.785156 -3.773438 4.660156 -5.3125 4.527344 -6.917969 C 6.382812 -7.070312 8.234375 -7.242188 10.074219 -7.3125 L 9.898438 -9.457031 C 8.050781 -9.199219 6.21875 -9.027344 4.363281 -8.898438 C 4.246094 -10.335938 4.132812 -11.6875 4.0625 -12.792969 C 4.089844 -12.964844 4.253906 -13.042969 4.523438 -13.0625 C 6.316406 -13.210938 9.171875 -13.40625 10.800781 -13.496094 L 10.632812 -15.558594 L 0.421875 -14.71875 C 0.582031 -13.535156 1.613281 -1.035156 1.625 -0.132812 L 12.148438 -1 L 11.976562 -3.085938 C 10.667969 -2.914062 8.191406 -2.667969 7.109375 -2.578125 Z M 7.109375 -2.578125 "/></g></g></g><g fill="#ea2e27" fill-opacity="1"><g transform="translate(42.353451, 24.53375)"><g><path d="M 3.867188 -0.0742188 L 4.441406 -10.289062 L 8.15625 -3.105469 C 8.308594 -2.878906 8.457031 -2.695312 8.875 -2.703125 C 9.1875 -2.707031 9.351562 -2.878906 9.558594 -3.132812 L 12.785156 -10.304688 L 13.667969 -0.265625 L 17.222656 -0.335938 L 15.871094 -14.945312 L 13.34375 -14.894531 C 12.925781 -14.886719 12.78125 -14.675781 12.601562 -14.335938 L 9.1875 -7.164062 L 5.621094 -14.203125 C 5.425781 -14.59375 5.148438 -14.738281 4.628906 -14.726562 L 1.992188 -14.675781 L 1.210938 -0.0234375 Z M 3.867188 -0.0742188 "/></g></g></g><g fill="#ea2e27" fill-opacity="1"><g transform="translate(60.00625, 24.259537)"><g><path d="M 7.375 -1.667969 C 6.101562 -1.722656 5.558594 -1.789062 5.1875 -1.929688 C 5.222656 -3.140625 5.289062 -4.6875 5.359375 -6.296875 C 7.214844 -6.214844 9.078125 -6.15625 10.910156 -5.992188 L 11.003906 -8.144531 C 9.140625 -8.121094 7.300781 -8.179688 5.445312 -8.28125 C 5.507812 -9.722656 5.566406 -11.078125 5.632812 -12.183594 C 5.683594 -12.351562 5.851562 -12.40625 6.125 -12.394531 C 7.921875 -12.316406 10.78125 -12.148438 12.40625 -12.039062 L 12.496094 -14.105469 L 2.261719 -14.550781 C 2.273438 -13.355469 1.730469 -0.824219 1.628906 0.0703125 L 12.175781 0.527344 L 12.265625 -1.558594 C 10.949219 -1.554688 8.460938 -1.621094 7.375 -1.667969 Z M 7.375 -1.667969 "/></g></g></g><g fill="#ea2e27" fill-opacity="1"><g transform="translate(71.722106, 24.695924)"><g><path d="M 8.921875 -13.804688 L 3.097656 -14.394531 C 3.027344 -13.078125 1.796875 -0.742188 1.621094 0.164062 L 7.527344 0.761719 C 12.148438 1.230469 15.433594 -1.148438 15.890625 -5.640625 C 16.332031 -10.027344 13.390625 -13.351562 8.921875 -13.804688 Z M 7.070312 -1.152344 C 6.34375 -1.226562 5.792969 -1.597656 5.363281 -1.9375 C 5.628906 -4.746094 6.085938 -9.28125 6.378906 -11.960938 C 6.460938 -12.140625 6.632812 -12.167969 7.089844 -12.121094 L 8.128906 -12.015625 C 10.460938 -11.78125 12.570312 -9.191406 12.199219 -5.507812 C 11.886719 -2.410156 10.148438 -0.84375 8.238281 -1.035156 Z M 7.070312 -1.152344 "/></g></g></g><g fill="#ea2e27" fill-opacity="1"><g transform="translate(86.877738, 26.319382)"><g><path d="M 5.085938 0.75 C 5.136719 -0.152344 6.96875 -12.558594 7.222656 -13.726562 L 3.75 -14.238281 C 3.640625 -13.070312 1.804688 -0.640625 1.613281 0.238281 Z M 5.085938 0.75 "/></g></g></g><g fill="#ea2e27" fill-opacity="1"><g transform="translate(92.906955, 27.105052)"><g><path d="M 11.222656 -12.425781 C 11.160156 -12.652344 10.953125 -12.796875 10.601562 -12.863281 L 7.523438 -13.457031 C 7.308594 -12.878906 7.492188 -12.292969 7.84375 -12.136719 C 5.648438 -8.578125 2.105469 -3.320312 -0.101562 -0.0195312 L 2.957031 0.566406 L 4.726562 -2.5625 C 6.476562 -2.246094 8.222656 -1.910156 9.964844 -1.554688 C 10.113281 -0.335938 10.28125 0.890625 10.46875 2.011719 L 14.71875 2.828125 C 13.726562 -0.320312 12.628906 -6.449219 11.222656 -12.425781 Z M 5.625 -4.132812 C 6.761719 -6.046875 7.738281 -7.582031 8.8125 -9.527344 C 9.042969 -7.949219 9.40625 -5.75 9.773438 -3.335938 Z M 5.625 -4.132812 "/></g></g></g></svg>